<svg width="24" height="24" viewBox="0 0 24 24" fill="none" xmlns="http://www.w3.org/2000/svg">
<path d="M12 13.5H5.3C5.01997 13.5 4.87996 13.5 4.773 13.5545C4.67892 13.6024 4.60243 13.6789 4.5545 13.773C4.5 13.88 4.5 14.02 4.5 14.3V17.7C4.5 17.98 4.5 18.12 4.5545 18.227C4.60243 18.3211 4.67892 18.3976 4.773 18.4455C4.87996 18.5 5.01997 18.5 5.3 18.5H12M12 13.5H18.7C18.98 13.5 19.12 13.5 19.227 13.5545C19.3211 13.6024 19.3976 13.6789 19.4455 13.773C19.5 13.88 19.5 14.02 19.5 14.3V17.7C19.5 17.98 19.5 18.12 19.4455 18.227C19.3976 18.3211 19.3211 18.3976 19.227 18.4455C19.12 18.5 18.98 18.5 18.7 18.5H12M12 13.5L12 10.5M12 18.5V22M12 10.5H16.2C16.48 10.5 16.62 10.5 16.727 10.4455C16.8211 10.3976 16.8976 10.3211 16.9455 10.227C17 10.12 17 9.98003 17 9.7V6.3C17 6.01997 17 5.87996 16.9455 5.773C16.8976 5.67892 16.8211 5.60243 16.727 5.5545C16.62 5.5 16.48 5.5 16.2 5.5H12M12 10.5H7.8C7.51997 10.5 7.37996 10.5 7.273 10.4455C7.17892 10.3976 7.10243 10.3211 7.0545 10.227C7 10.12 7 9.98003 7 9.7V6.3C7 6.01998 7 5.87996 7.0545 5.773C7.10243 5.67892 7.17892 5.60243 7.273 5.5545C7.37996 5.5 7.51997 5.5 7.8 5.5H12M12 5.5V2" stroke="#282930" stroke-width="1.5" stroke-linecap="round"/>
</svg>
