<svg xmlns="http://www.w3.org/2000/svg" viewBox="0 0 17.7 21.5"><defs><style>.cls-1{fill:#282930;}</style></defs><g id="Layer_2" data-name="Layer 2"><g id="Layer_1-2" data-name="Layer 1"><path class="cls-1" d="M2.55,3.8l-.34-.66h0ZM2.33,4,3,4.36H3Zm5,0L8,3.68H8ZM7.06,3.8l.34-.66h0Zm0,16.9.34.66h0Zm.22-.22.67.34H8Zm-4.73.22-.34.66Zm-.22-.22L3,20.14H3ZM10.64,3.8l-.34-.66h0ZM10.42,4l.68.34h0Zm4.95,0-.68.34h0Zm-.22-.22.34-.66h0Zm0,11.9.34.66h0Zm.22-.22-.68-.34h0Zm-4.73.22-.34.66h0Zm-.22-.22.68-.34h0ZM.76,1.5A.76.76,0,0,1,0,.75.76.76,0,0,1,.76,0ZM16.94,0a.76.76,0,0,1,.76.75.76.76,0,0,1-.76.75ZM3.08,20H6.52v1.5H3.08ZM6.57,20V4.55H8.09V20ZM6.52,4.5H3.08V3H6.52ZM3,4.55V20H1.52V4.55Zm.05,0H2.81s0,0,.09,0L2.21,3.14A1.28,1.28,0,0,1,2.69,3h.39Zm-1.56,0c0-.13,0-.27,0-.39a1.25,1.25,0,0,1,.12-.48L3,4.36c0-.07,0-.11,0-.08a.46.46,0,0,1,0,.1v.17ZM2.9,4.47A.29.29,0,0,0,3,4.36L1.65,3.68a1.33,1.33,0,0,1,.56-.54Zm3.67.08V4.28s0,0,0,.08L8,3.68a1.28,1.28,0,0,1,.13.48c0,.12,0,.26,0,.39ZM6.52,3h.4a1.28,1.28,0,0,1,.48.13L6.71,4.47c.07,0,.12,0,.08,0H6.52ZM6.6,4.36a.2.2,0,0,0,.11.11L7.4,3.14A1.25,1.25,0,0,1,8,3.68ZM6.52,20h.27s0,0-.08,0l.69,1.33a1.28,1.28,0,0,1-.48.13h-.4ZM8.09,20c0,.13,0,.27,0,.39a1.28,1.28,0,0,1-.13.48L6.6,20.14c0,.07,0,.11,0,.08V20ZM6.71,20a.2.2,0,0,0-.11.11L8,20.82a1.25,1.25,0,0,1-.55.54ZM3.08,21.5H2.69a1.28,1.28,0,0,1-.48-.13L2.9,20c-.07,0-.12,0-.09,0h.27ZM3,20v.17a.46.46,0,0,1,0,.1s0,0,0-.08l-1.36.68a1.25,1.25,0,0,1-.12-.48c0-.12,0-.26,0-.39Zm-.82,1.41a1.33,1.33,0,0,1-.56-.54L3,20.14A.29.29,0,0,0,2.9,20Zm9-6.36h3.44v1.5H11.17ZM14.66,15V4.55h1.52V15ZM14.61,4.5H11.17V3h3.44Zm-3.49,0V15H9.61V4.55Zm.05,0H10.9s0,0,.09,0L10.3,3.14A1.28,1.28,0,0,1,10.78,3h.39Zm-1.56,0c0-.13,0-.27,0-.39a1.25,1.25,0,0,1,.12-.48l1.36.68c0-.07,0-.11,0-.08a.46.46,0,0,1,0,.1v.17ZM11,4.47a.29.29,0,0,0,.11-.11L9.74,3.68a1.33,1.33,0,0,1,.56-.54Zm3.67.08V4.28s0,0,0,.08L16,3.68a1.28,1.28,0,0,1,.13.48c0,.12,0,.26,0,.39ZM14.61,3H15a1.28,1.28,0,0,1,.48.13L14.8,4.47c.07,0,.12,0,.08,0h-.27Zm.08,1.36a.2.2,0,0,0,.11.11l.69-1.33a1.25,1.25,0,0,1,.55.54ZM14.61,15h.27s0,0-.08,0l.69,1.33a1.28,1.28,0,0,1-.48.13h-.4ZM16.18,15c0,.13,0,.27,0,.39a1.28,1.28,0,0,1-.13.48l-1.35-.68c0,.07,0,.11,0,.08V15ZM14.8,15a.2.2,0,0,0-.11.11l1.35.68a1.25,1.25,0,0,1-.55.54ZM11.17,16.5h-.39a1.28,1.28,0,0,1-.48-.13L11,15c-.08,0-.12,0-.09,0h.27ZM11.12,15v.17a.46.46,0,0,1,0,.1s0,0,0-.08l-1.36.68a1.25,1.25,0,0,1-.12-.48c0-.12,0-.26,0-.39Zm-.82,1.41a1.33,1.33,0,0,1-.56-.54l1.36-.68A.29.29,0,0,0,11,15ZM.76,0H16.94V1.5H.76Z"/></g></g></svg>