<svg width="24" height="24" viewBox="0 0 24 24" fill="none" xmlns="http://www.w3.org/2000/svg">
<path d="M5.773 18.9455L5.43251 19.6138L5.43251 19.6138L5.773 18.9455ZM5.5545 18.727L6.22275 18.3865L6.22275 18.3865L5.5545 18.727ZM10.4455 18.727L11.1138 19.0675L11.1138 19.0675L10.4455 18.727ZM10.227 18.9455L10.5675 19.6138L10.5675 19.6138L10.227 18.9455ZM10.227 2.0545L10.5675 1.38624L10.5675 1.38624L10.227 2.0545ZM10.4455 2.273L11.1138 1.93251L11.1138 1.93251L10.4455 2.273ZM5.773 2.0545L5.43251 1.38624L5.773 2.0545ZM5.5545 2.273L6.22275 2.6135L6.22275 2.6135L5.5545 2.273ZM13.773 18.9455L13.4325 19.6138L13.4325 19.6138L13.773 18.9455ZM13.5545 18.727L14.2228 18.3865L14.2228 18.3865L13.5545 18.727ZM18.4455 18.727L17.7772 18.3865L17.7772 18.3865L18.4455 18.727ZM18.227 18.9455L18.5675 19.6138L18.5675 19.6138L18.227 18.9455ZM18.227 7.0545L18.5675 6.38624L18.5675 6.38624L18.227 7.0545ZM18.4455 7.273L17.7772 7.6135L17.7772 7.6135L18.4455 7.273ZM13.773 7.0545L13.4325 6.38624L13.4325 6.38624L13.773 7.0545ZM13.5545 7.273L14.2228 7.6135L14.2228 7.6135L13.5545 7.273ZM4 21.25C3.58579 21.25 3.25 21.5858 3.25 22C3.25 22.4142 3.58579 22.75 4 22.75V21.25ZM20 22.75C20.4142 22.75 20.75 22.4142 20.75 22C20.75 21.5858 20.4142 21.25 20 21.25V22.75ZM6.3 2.75H9.7V1.25H6.3V2.75ZM9.75 2.8V18.2H11.25V2.8H9.75ZM9.7 18.25H6.3V19.75H9.7V18.25ZM6.25 18.2V2.8H4.75V18.2H6.25ZM6.3 18.25C6.22828 18.25 6.17343 18.25 6.12635 18.2492C6.07925 18.2485 6.05072 18.2472 6.03267 18.2457C5.99568 18.2427 6.04362 18.2416 6.1135 18.2772L5.43251 19.6138C5.60934 19.7039 5.78077 19.7301 5.91053 19.7407C6.03153 19.7506 6.17236 19.75 6.3 19.75V18.25ZM4.75 18.2C4.75 18.3276 4.74942 18.4685 4.7593 18.5895C4.7699 18.7192 4.79614 18.8907 4.88624 19.0675L6.22275 18.3865C6.25835 18.4564 6.25734 18.5043 6.25432 18.4673C6.25285 18.4493 6.2515 18.4208 6.25076 18.3737C6.25002 18.3266 6.25 18.2717 6.25 18.2H4.75ZM6.1135 18.2773C6.16053 18.3012 6.19878 18.3395 6.22275 18.3865L4.88624 19.0675C5.00609 19.3027 5.19731 19.4939 5.43251 19.6138L6.1135 18.2773ZM9.75 18.2C9.75 18.2717 9.74998 18.3266 9.74924 18.3737C9.7485 18.4208 9.74715 18.4493 9.74568 18.4673C9.74266 18.5043 9.74165 18.4564 9.77725 18.3865L11.1138 19.0675C11.2039 18.8907 11.2301 18.7192 11.2407 18.5895C11.2506 18.4685 11.25 18.3276 11.25 18.2H9.75ZM9.7 19.75C9.82764 19.75 9.96847 19.7506 10.0895 19.7407C10.2192 19.7301 10.3907 19.7039 10.5675 19.6138L9.8865 18.2772C9.95638 18.2416 10.0043 18.2427 9.96733 18.2457C9.94928 18.2472 9.92075 18.2485 9.87365 18.2492C9.82657 18.25 9.77172 18.25 9.7 18.25V19.75ZM9.77725 18.3865C9.80122 18.3395 9.83947 18.3012 9.8865 18.2773L10.5675 19.6138C10.8027 19.4939 10.9939 19.3027 11.1138 19.0675L9.77725 18.3865ZM9.7 2.75C9.77172 2.75 9.82657 2.75002 9.87365 2.75076C9.92075 2.7515 9.94928 2.75285 9.96733 2.75432C10.0043 2.75734 9.95638 2.75835 9.8865 2.72275L10.5675 1.38624C10.3907 1.29614 10.2192 1.2699 10.0895 1.2593C9.96847 1.24942 9.82764 1.25 9.7 1.25V2.75ZM11.25 2.8C11.25 2.67236 11.2506 2.53153 11.2407 2.41053C11.2301 2.28077 11.2039 2.10934 11.1138 1.93251L9.77725 2.6135C9.74165 2.54362 9.74266 2.49568 9.74568 2.53267C9.74715 2.55072 9.7485 2.57925 9.74924 2.62635C9.74998 2.67343 9.75 2.72828 9.75 2.8H11.25ZM9.8865 2.72275C9.83946 2.69878 9.80122 2.66054 9.77725 2.6135L11.1138 1.93251C10.9939 1.69731 10.8027 1.50608 10.5675 1.38624L9.8865 2.72275ZM6.3 1.25C6.17236 1.25 6.03153 1.24942 5.91053 1.2593C5.78077 1.2699 5.60934 1.29614 5.43251 1.38624L6.1135 2.72275C6.04362 2.75835 5.99568 2.75734 6.03267 2.75432C6.05072 2.75285 6.07925 2.7515 6.12635 2.75076C6.17343 2.75002 6.22828 2.75 6.3 2.75V1.25ZM6.25 2.8C6.25 2.72828 6.25002 2.67342 6.25076 2.62635C6.2515 2.57925 6.25285 2.55072 6.25432 2.53267C6.25734 2.49568 6.25835 2.54362 6.22275 2.6135L4.88624 1.93251C4.79614 2.10934 4.7699 2.28077 4.7593 2.41053C4.74942 2.53153 4.75 2.67236 4.75 2.8H6.25ZM5.43251 1.38624C5.19731 1.50608 5.00608 1.69731 4.88624 1.93251L6.22275 2.6135C6.19878 2.66054 6.16054 2.69878 6.1135 2.72275L5.43251 1.38624ZM14.3 7.75H17.7V6.25H14.3V7.75ZM17.75 7.8V18.2H19.25V7.8H17.75ZM17.7 18.25H14.3V19.75H17.7V18.25ZM14.25 18.2V7.8H12.75V18.2H14.25ZM14.3 18.25C14.2283 18.25 14.1734 18.25 14.1263 18.2492C14.0792 18.2485 14.0507 18.2472 14.0327 18.2457C13.9957 18.2427 14.0436 18.2416 14.1135 18.2772L13.4325 19.6138C13.6093 19.7039 13.7808 19.7301 13.9105 19.7407C14.0315 19.7506 14.1724 19.75 14.3 19.75V18.25ZM12.75 18.2C12.75 18.3276 12.7494 18.4685 12.7593 18.5895C12.7699 18.7192 12.7961 18.8907 12.8862 19.0675L14.2228 18.3865C14.2584 18.4564 14.2573 18.5043 14.2543 18.4673C14.2528 18.4493 14.2515 18.4208 14.2508 18.3737C14.25 18.3266 14.25 18.2717 14.25 18.2H12.75ZM14.1135 18.2773C14.1605 18.3012 14.1988 18.3395 14.2228 18.3865L12.8862 19.0675C13.0061 19.3027 13.1973 19.4939 13.4325 19.6138L14.1135 18.2773ZM17.75 18.2C17.75 18.2717 17.75 18.3266 17.7492 18.3737C17.7485 18.4208 17.7472 18.4493 17.7457 18.4673C17.7427 18.5043 17.7416 18.4564 17.7772 18.3865L19.1138 19.0675C19.2039 18.8907 19.2301 18.7192 19.2407 18.5895C19.2506 18.4685 19.25 18.3276 19.25 18.2H17.75ZM17.7 19.75C17.8276 19.75 17.9685 19.7506 18.0895 19.7407C18.2192 19.7301 18.3907 19.7039 18.5675 19.6138L17.8865 18.2772C17.9564 18.2416 18.0043 18.2427 17.9673 18.2457C17.9493 18.2472 17.9208 18.2485 17.8737 18.2492C17.8266 18.25 17.7717 18.25 17.7 18.25V19.75ZM17.7772 18.3865C17.8012 18.3395 17.8395 18.3012 17.8865 18.2773L18.5675 19.6138C18.8027 19.4939 18.9939 19.3027 19.1138 19.0675L17.7772 18.3865ZM17.7 7.75C17.7717 7.75 17.8266 7.75002 17.8737 7.75076C17.9208 7.7515 17.9493 7.75285 17.9673 7.75432C18.0043 7.75734 17.9564 7.75835 17.8865 7.72275L18.5675 6.38624C18.3907 6.29614 18.2192 6.2699 18.0895 6.2593C17.9685 6.24942 17.8276 6.25 17.7 6.25V7.75ZM19.25 7.8C19.25 7.67236 19.2506 7.53153 19.2407 7.41053C19.2301 7.28077 19.2039 7.10934 19.1138 6.93251L17.7772 7.6135C17.7416 7.54362 17.7427 7.49568 17.7457 7.53267C17.7472 7.55072 17.7485 7.57925 17.7492 7.62635C17.75 7.67343 17.75 7.72828 17.75 7.8H19.25ZM17.8865 7.72275C17.8395 7.69878 17.8012 7.66054 17.7772 7.6135L19.1138 6.93251C18.9939 6.69731 18.8027 6.50608 18.5675 6.38624L17.8865 7.72275ZM14.3 6.25C14.1724 6.25 14.0315 6.24942 13.9105 6.2593C13.7808 6.2699 13.6093 6.29614 13.4325 6.38624L14.1135 7.72275C14.0436 7.75835 13.9957 7.75734 14.0327 7.75432C14.0507 7.75285 14.0792 7.7515 14.1263 7.75076C14.1734 7.75002 14.2283 7.75 14.3 7.75V6.25ZM14.25 7.8C14.25 7.72828 14.25 7.67343 14.2508 7.62635C14.2515 7.57925 14.2528 7.55072 14.2543 7.53267C14.2573 7.49568 14.2584 7.54362 14.2228 7.6135L12.8862 6.93251C12.7961 7.10934 12.7699 7.28077 12.7593 7.41053C12.7494 7.53153 12.75 7.67236 12.75 7.8H14.25ZM13.4325 6.38624C13.1973 6.50608 13.0061 6.69731 12.8862 6.93251L14.2228 7.6135C14.1988 7.66054 14.1605 7.69878 14.1135 7.72275L13.4325 6.38624ZM4 22.75H20V21.25H4V22.75Z" fill="#282930"/>
</svg>
