<svg width="24" height="24" viewBox="0 0 24 24" fill="none" xmlns="http://www.w3.org/2000/svg">
<path d="M3 17.7L3.75 17.7L3 17.7ZM3 14.3L2.25 14.3L3 14.3ZM3.8 13.5L3.8 14.25L3.8 14.25L3.8 13.5ZM17.2 13.5L17.2 12.75L17.2 12.75L17.2 13.5ZM18 14.3L18.75 14.3V14.3L18 14.3ZM18 17.7L17.25 17.7V17.7L18 17.7ZM17.2 18.5L17.2 19.25H17.2L17.2 18.5ZM3.8 18.5L3.8 17.75H3.8L3.8 18.5ZM17.9455 18.227L18.6138 18.5675L18.6138 18.5675L17.9455 18.227ZM17.727 18.4455L17.3865 17.7772L17.3865 17.7772L17.727 18.4455ZM17.727 13.5545L18.0675 12.8862L18.0675 12.8862L17.727 13.5545ZM17.9455 13.773L18.6138 13.4325L18.6138 13.4325L17.9455 13.773ZM3.0545 13.773L2.38624 13.4325L2.38624 13.4325L3.0545 13.773ZM3.273 13.5545L2.93251 12.8862L2.93251 12.8862L3.273 13.5545ZM3.0545 18.227L2.38624 18.5675L2.38624 18.5675L3.0545 18.227ZM3.273 18.4455L3.6135 17.7772L3.6135 17.7772L3.273 18.4455ZM7 9.7L6.25 9.7L6.25 9.7L7 9.7ZM7 6.3L7.75 6.3L7.75 6.3L7 6.3ZM7.8 5.5L7.8 4.75L7.8 5.5ZM17.2 5.5L17.2 6.25L17.2 5.5ZM18 6.3L18.75 6.3V6.3L18 6.3ZM18 9.7L17.25 9.7V9.7L18 9.7ZM17.2 10.5L17.2 9.75L17.2 9.75L17.2 10.5ZM7.8 10.5L7.8 11.25L7.8 11.25L7.8 10.5ZM17.9455 10.227L18.6138 10.5675L18.6138 10.5675L17.9455 10.227ZM17.727 10.4455L17.3865 9.77725L17.3865 9.77725L17.727 10.4455ZM17.727 5.5545L17.3865 6.22275L17.3865 6.22276L17.727 5.5545ZM17.9455 5.773L18.6138 5.43251L18.6138 5.4325L17.9455 5.773ZM7.0545 5.77301L6.38624 5.43251L6.38624 5.43251L7.0545 5.77301ZM7.273 5.5545L7.61349 6.22276L7.6135 6.22275L7.273 5.5545ZM7.0545 10.227L6.38624 10.5675L6.38624 10.5675L7.0545 10.227ZM7.273 10.4455L7.6135 9.77725L7.6135 9.77725L7.273 10.4455ZM20.25 22C20.25 22.4142 20.5858 22.75 21 22.75C21.4142 22.75 21.75 22.4142 21.75 22H20.25ZM21.75 2C21.75 1.58579 21.4142 1.25 21 1.25C20.5858 1.25 20.25 1.58579 20.25 2H21.75ZM3.75 17.7L3.75 14.3L2.25 14.3L2.25 17.7L3.75 17.7ZM3.8 14.25L17.2 14.25L17.2 12.75L3.8 12.75L3.8 14.25ZM17.25 14.3V17.7H18.75V14.3H17.25ZM17.2 17.75H3.8V19.25H17.2V17.75ZM17.25 17.7C17.25 17.7717 17.25 17.8266 17.2492 17.8737C17.2485 17.9208 17.2472 17.9493 17.2457 17.9673C17.2427 18.0043 17.2416 17.9564 17.2772 17.8865L18.6138 18.5675C18.7039 18.3907 18.7301 18.2192 18.7407 18.0895C18.7506 17.9685 18.75 17.8276 18.75 17.7L17.25 17.7ZM17.2 19.25C17.3276 19.25 17.4685 19.2506 17.5895 19.2407C17.7192 19.2301 17.8907 19.2039 18.0675 19.1138L17.3865 17.7772C17.4564 17.7416 17.5043 17.7427 17.4673 17.7457C17.4493 17.7472 17.4208 17.7485 17.3737 17.7492C17.3266 17.75 17.2717 17.75 17.2 17.75L17.2 19.25ZM17.2773 17.8865C17.3012 17.8395 17.3395 17.8012 17.3865 17.7772L18.0675 19.1138C18.3027 18.9939 18.4939 18.8027 18.6138 18.5675L17.2773 17.8865ZM17.2 14.25C17.2717 14.25 17.3266 14.25 17.3737 14.2508C17.4208 14.2515 17.4493 14.2528 17.4673 14.2543C17.5043 14.2573 17.4564 14.2584 17.3865 14.2228L18.0675 12.8862C17.8907 12.7961 17.7192 12.7699 17.5895 12.7593C17.4685 12.7494 17.3276 12.75 17.2 12.75L17.2 14.25ZM18.75 14.3C18.75 14.1724 18.7506 14.0315 18.7407 13.9105C18.7301 13.7808 18.7039 13.6093 18.6138 13.4325L17.2772 14.1135C17.2416 14.0436 17.2427 13.9957 17.2457 14.0327C17.2472 14.0507 17.2485 14.0792 17.2492 14.1263C17.25 14.1734 17.25 14.2283 17.25 14.3L18.75 14.3ZM17.3865 14.2228C17.3395 14.1988 17.3012 14.1605 17.2773 14.1135L18.6138 13.4325C18.4939 13.1973 18.3027 13.0061 18.0675 12.8862L17.3865 14.2228ZM3.75 14.3C3.75 14.2283 3.75002 14.1734 3.75076 14.1263C3.7515 14.0793 3.75285 14.0507 3.75432 14.0327C3.75734 13.9957 3.75835 14.0436 3.72275 14.1135L2.38624 13.4325C2.29614 13.6093 2.2699 13.7808 2.2593 13.9105C2.24942 14.0315 2.25 14.1724 2.25 14.3L3.75 14.3ZM3.8 12.75C3.67236 12.75 3.53153 12.7494 3.41053 12.7593C3.28077 12.7699 3.10934 12.7961 2.93251 12.8862L3.6135 14.2228C3.54362 14.2584 3.49568 14.2573 3.53267 14.2543C3.55072 14.2528 3.57925 14.2515 3.62635 14.2508C3.67342 14.25 3.72828 14.25 3.8 14.25L3.8 12.75ZM3.72275 14.1135C3.69878 14.1605 3.66054 14.1988 3.6135 14.2228L2.93251 12.8862C2.69731 13.0061 2.50609 13.1973 2.38624 13.4325L3.72275 14.1135ZM2.25 17.7C2.25 17.8276 2.24942 17.9685 2.2593 18.0895C2.2699 18.2192 2.29614 18.3907 2.38624 18.5675L3.72275 17.8865C3.75835 17.9564 3.75734 18.0043 3.75432 17.9673C3.75285 17.9493 3.7515 17.9208 3.75076 17.8737C3.75002 17.8266 3.75 17.7717 3.75 17.7L2.25 17.7ZM3.8 17.75C3.72828 17.75 3.67342 17.75 3.62635 17.7492C3.57925 17.7485 3.55072 17.7472 3.53268 17.7457C3.49568 17.7427 3.54363 17.7416 3.6135 17.7772L2.93251 19.1138C3.10934 19.2039 3.28077 19.2301 3.41053 19.2407C3.53153 19.2506 3.67236 19.25 3.8 19.25L3.8 17.75ZM2.38624 18.5675C2.50608 18.8027 2.69731 18.9939 2.93251 19.1138L3.6135 17.7772C3.66054 17.8012 3.69878 17.8395 3.72275 17.8865L2.38624 18.5675ZM7.75 9.7V6.3H6.25V9.7H7.75ZM7.8 6.25L17.2 6.25L17.2 4.75L7.8 4.75L7.8 6.25ZM17.25 6.3V9.7H18.75V6.3H17.25ZM17.2 9.75L7.8 9.75L7.8 11.25L17.2 11.25L17.2 9.75ZM17.25 9.7C17.25 9.77172 17.25 9.82657 17.2492 9.87365C17.2485 9.92075 17.2472 9.94928 17.2457 9.96733C17.2427 10.0043 17.2416 9.95638 17.2772 9.8865L18.6138 10.5675C18.7039 10.3907 18.7301 10.2192 18.7407 10.0895C18.7506 9.96847 18.75 9.82764 18.75 9.7L17.25 9.7ZM17.2 11.25C17.3276 11.25 17.4685 11.2506 17.5895 11.2407C17.7192 11.2301 17.8907 11.2039 18.0675 11.1138L17.3865 9.77725C17.4564 9.74165 17.5043 9.74266 17.4673 9.74568C17.4493 9.74715 17.4208 9.7485 17.3737 9.74924C17.3266 9.74998 17.2717 9.75 17.2 9.75L17.2 11.25ZM17.2773 9.8865C17.3012 9.83947 17.3395 9.80122 17.3865 9.77725L18.0675 11.1138C18.3027 10.9939 18.4939 10.8027 18.6138 10.5675L17.2773 9.8865ZM17.2 6.25C17.2717 6.25 17.3266 6.25002 17.3737 6.25076C17.4208 6.2515 17.4493 6.25285 17.4673 6.25432C17.5043 6.25734 17.4564 6.25835 17.3865 6.22275L18.0675 4.88624C17.8907 4.79614 17.7192 4.7699 17.5895 4.7593C17.4685 4.74942 17.3276 4.75 17.2 4.75L17.2 6.25ZM18.75 6.3C18.75 6.17236 18.7506 6.03153 18.7407 5.91053C18.7301 5.78077 18.7039 5.60934 18.6138 5.43251L17.2773 6.1135C17.2416 6.04363 17.2427 5.99568 17.2457 6.03267C17.2472 6.05072 17.2485 6.07925 17.2492 6.12635C17.25 6.17342 17.25 6.22828 17.25 6.3L18.75 6.3ZM17.3865 6.22276C17.3395 6.19878 17.3012 6.16053 17.2773 6.1135L18.6138 5.4325C18.4939 5.19732 18.3027 5.00609 18.0675 4.88624L17.3865 6.22276ZM7.75 6.3C7.75 6.22828 7.75002 6.17342 7.75076 6.12635C7.7515 6.07925 7.75285 6.05072 7.75432 6.03267C7.75734 5.99568 7.75835 6.04363 7.72275 6.1135L6.38624 5.43251C6.29614 5.60934 6.2699 5.78077 6.2593 5.91053C6.24942 6.03153 6.25 6.17236 6.25 6.3L7.75 6.3ZM7.8 4.75C7.67236 4.75 7.53153 4.74942 7.41053 4.7593C7.28077 4.76991 7.10934 4.79614 6.93251 4.88624L7.6135 6.22275C7.54362 6.25835 7.49568 6.25734 7.53267 6.25432C7.55072 6.25285 7.57925 6.2515 7.62635 6.25076C7.67342 6.25002 7.72828 6.25 7.8 6.25L7.8 4.75ZM7.72275 6.1135C7.69879 6.16053 7.66054 6.19878 7.61349 6.22276L6.93252 4.88624C6.6973 5.00608 6.50608 5.19732 6.38624 5.43251L7.72275 6.1135ZM6.25 9.7C6.25 9.82764 6.24942 9.96847 6.2593 10.0895C6.2699 10.2192 6.29614 10.3907 6.38624 10.5675L7.72275 9.8865C7.75835 9.95638 7.75734 10.0043 7.75432 9.96733C7.75285 9.94928 7.7515 9.92075 7.75076 9.87365C7.75002 9.82658 7.75 9.77172 7.75 9.7L6.25 9.7ZM7.8 9.75C7.72828 9.75 7.67343 9.74998 7.62635 9.74924C7.57925 9.7485 7.55072 9.74715 7.53267 9.74568C7.49568 9.74266 7.54362 9.74165 7.6135 9.77725L6.93251 11.1138C7.10934 11.2039 7.28077 11.2301 7.41053 11.2407C7.53153 11.2506 7.67236 11.25 7.8 11.25L7.8 9.75ZM6.38624 10.5675C6.50608 10.8027 6.69731 10.9939 6.93251 11.1138L7.6135 9.77725C7.66054 9.80122 7.69878 9.83946 7.72275 9.8865L6.38624 10.5675ZM21.75 22V2H20.25V22H21.75Z" fill="#282930"/>
</svg>
