<svg width="24" height="24" viewBox="0 0 24 24" fill="none" xmlns="http://www.w3.org/2000/svg">
<path d="M21 17.7L21.75 17.7V17.7H21ZM21 14.3L20.25 14.3V14.3H21ZM20.2 13.5L20.2 14.25H20.2L20.2 13.5ZM6.8 13.5L6.8 12.75H6.8L6.8 13.5ZM6 14.3L5.25 14.3V14.3H6ZM6 17.7L6.75 17.7V17.7H6ZM6.8 18.5L6.8 19.25H6.8V18.5ZM20.2 18.5L20.2 17.75H20.2V18.5ZM6.0545 18.227L5.38624 18.5675L5.38624 18.5675L6.0545 18.227ZM6.273 18.4455L6.6135 17.7772L6.6135 17.7772L6.273 18.4455ZM6.27301 13.5545L5.93251 12.8862L5.93251 12.8862L6.27301 13.5545ZM6.0545 13.773L5.38624 13.4325L5.38624 13.4325L6.0545 13.773ZM20.9455 13.773L21.6138 13.4325L21.6138 13.4325L20.9455 13.773ZM20.727 13.5545L21.0675 12.8862L21.0675 12.8862L20.727 13.5545ZM20.9455 18.227L21.6138 18.5675L21.6138 18.5675L20.9455 18.227ZM20.727 18.4455L20.3865 17.7772L20.3865 17.7772L20.727 18.4455ZM17 9.7L17.75 9.7V9.7H17ZM17 6.3L16.25 6.3V6.3H17ZM16.2 5.5L16.2 4.75L16.2 5.5ZM6.8 5.5L6.8 6.25L6.8 5.5ZM6 6.3L6.75 6.3L6 6.3ZM6 9.7L5.25 9.7L6 9.7ZM6.8 10.5L6.8 9.75L6.8 9.75L6.8 10.5ZM16.2 10.5L16.2 11.25L16.2 11.25L16.2 10.5ZM6.0545 10.227L5.38624 10.5675L5.38624 10.5675L6.0545 10.227ZM6.27301 10.4455L6.6135 9.77725L6.61349 9.77725L6.27301 10.4455ZM6.27301 5.5545L6.61349 6.22276L6.6135 6.22275L6.27301 5.5545ZM6.0545 5.773L5.38625 5.4325L5.38624 5.43251L6.0545 5.773ZM16.9455 5.77301L17.6138 5.43251L17.6138 5.43251L16.9455 5.77301ZM16.727 5.5545L16.3865 6.22275L16.3865 6.22276L16.727 5.5545ZM16.9455 10.227L17.6138 10.5675L17.6138 10.5675L16.9455 10.227ZM16.727 10.4455L16.3865 9.77725L16.3865 9.77725L16.727 10.4455ZM2.25 22C2.25 22.4142 2.58579 22.75 3 22.75C3.41421 22.75 3.75 22.4142 3.75 22L2.25 22ZM3.75 2C3.75 1.58579 3.41421 1.25 3 1.25C2.58579 1.25 2.25 1.58579 2.25 2L3.75 2ZM21.75 17.7V14.3H20.25V17.7H21.75ZM20.2 12.75L6.8 12.75L6.8 14.25L20.2 14.25L20.2 12.75ZM5.25 14.3V17.7H6.75V14.3H5.25ZM6.8 19.25H20.2V17.75H6.8V19.25ZM5.25 17.7C5.25 17.8276 5.24942 17.9685 5.2593 18.0895C5.2699 18.2192 5.29614 18.3907 5.38624 18.5675L6.72275 17.8865C6.75835 17.9564 6.75734 18.0043 6.75432 17.9673C6.75285 17.9493 6.7515 17.9208 6.75076 17.8737C6.75002 17.8266 6.75 17.7717 6.75 17.7L5.25 17.7ZM6.8 17.75C6.72828 17.75 6.67342 17.75 6.62635 17.7492C6.57925 17.7485 6.55072 17.7472 6.53268 17.7457C6.49568 17.7427 6.54362 17.7416 6.6135 17.7772L5.93251 19.1138C6.10934 19.2039 6.28077 19.2301 6.41053 19.2407C6.53153 19.2506 6.67236 19.25 6.8 19.25L6.8 17.75ZM5.38624 18.5675C5.50608 18.8027 5.6973 18.9939 5.93251 19.1138L6.6135 17.7772C6.66054 17.8012 6.69879 17.8395 6.72275 17.8865L5.38624 18.5675ZM6.8 12.75C6.67236 12.75 6.53153 12.7494 6.41053 12.7593C6.28077 12.7699 6.10934 12.7961 5.93251 12.8862L6.6135 14.2228C6.54362 14.2584 6.49568 14.2573 6.53268 14.2543C6.55072 14.2528 6.57925 14.2515 6.62635 14.2508C6.67343 14.25 6.72828 14.25 6.8 14.25L6.8 12.75ZM6.75 14.3C6.75 14.2283 6.75002 14.1734 6.75076 14.1263C6.7515 14.0793 6.75285 14.0507 6.75432 14.0327C6.75734 13.9957 6.75835 14.0436 6.72275 14.1135L5.38624 13.4325C5.29614 13.6093 5.26991 13.7808 5.2593 13.9105C5.24942 14.0315 5.25 14.1724 5.25 14.3L6.75 14.3ZM5.93251 12.8862C5.69731 13.0061 5.50609 13.1973 5.38624 13.4325L6.72275 14.1135C6.69878 14.1605 6.66054 14.1988 6.6135 14.2228L5.93251 12.8862ZM21.75 14.3C21.75 14.1724 21.7506 14.0315 21.7407 13.9105C21.7301 13.7808 21.7039 13.6093 21.6138 13.4325L20.2772 14.1135C20.2416 14.0436 20.2427 13.9957 20.2457 14.0327C20.2472 14.0507 20.2485 14.0793 20.2492 14.1263C20.25 14.1734 20.25 14.2283 20.25 14.3L21.75 14.3ZM20.2 14.25C20.2717 14.25 20.3266 14.25 20.3737 14.2508C20.4208 14.2515 20.4493 14.2528 20.4673 14.2543C20.5043 14.2573 20.4564 14.2584 20.3865 14.2228L21.0675 12.8862C20.8907 12.7961 20.7192 12.7699 20.5895 12.7593C20.4685 12.7494 20.3276 12.75 20.2 12.75L20.2 14.25ZM21.6138 13.4325C21.4939 13.1973 21.3027 13.0061 21.0675 12.8862L20.3865 14.2228C20.3395 14.1988 20.3012 14.1605 20.2772 14.1135L21.6138 13.4325ZM20.25 17.7C20.25 17.7717 20.25 17.8266 20.2492 17.8737C20.2485 17.9208 20.2472 17.9493 20.2457 17.9673C20.2427 18.0043 20.2416 17.9564 20.2772 17.8865L21.6138 18.5675C21.7039 18.3907 21.7301 18.2192 21.7407 18.0895C21.7506 17.9685 21.75 17.8276 21.75 17.7L20.25 17.7ZM20.2 19.25C20.3276 19.25 20.4685 19.2506 20.5895 19.2407C20.7192 19.2301 20.8907 19.2039 21.0675 19.1138L20.3865 17.7772C20.4564 17.7416 20.5043 17.7427 20.4673 17.7457C20.4493 17.7472 20.4208 17.7485 20.3737 17.7492C20.3266 17.75 20.2717 17.75 20.2 17.75L20.2 19.25ZM20.2772 17.8865C20.3012 17.8395 20.3395 17.8012 20.3865 17.7772L21.0675 19.1138C21.3027 18.9939 21.4939 18.8027 21.6138 18.5675L20.2772 17.8865ZM17.75 9.7V6.3H16.25V9.7H17.75ZM16.2 4.75L6.8 4.75L6.8 6.25L16.2 6.25L16.2 4.75ZM5.25 6.3L5.25 9.7L6.75 9.7L6.75 6.3L5.25 6.3ZM6.8 11.25L16.2 11.25L16.2 9.75L6.8 9.75L6.8 11.25ZM5.25 9.7C5.25 9.82764 5.24942 9.96847 5.2593 10.0895C5.2699 10.2192 5.29614 10.3907 5.38624 10.5675L6.72275 9.8865C6.75835 9.95638 6.75734 10.0043 6.75432 9.96733C6.75285 9.94928 6.7515 9.92075 6.75076 9.87365C6.75002 9.82657 6.75 9.77172 6.75 9.7L5.25 9.7ZM6.8 9.75C6.72828 9.75 6.67343 9.74998 6.62635 9.74924C6.57925 9.7485 6.55072 9.74715 6.53268 9.74568C6.49568 9.74266 6.54362 9.74165 6.6135 9.77725L5.93251 11.1138C6.10934 11.2039 6.28077 11.2301 6.41053 11.2407C6.53153 11.2506 6.67236 11.25 6.8 11.25L6.8 9.75ZM5.38624 10.5675C5.50608 10.8027 5.6973 10.9939 5.93252 11.1138L6.61349 9.77725C6.66054 9.80122 6.69879 9.83947 6.72275 9.8865L5.38624 10.5675ZM6.8 4.75C6.67236 4.75 6.53153 4.74942 6.41053 4.7593C6.28077 4.7699 6.10934 4.79614 5.93251 4.88624L6.6135 6.22275C6.54363 6.25835 6.49568 6.25734 6.53268 6.25432C6.55072 6.25285 6.57925 6.2515 6.62635 6.25076C6.67343 6.25002 6.72828 6.25 6.8 6.25L6.8 4.75ZM6.75 6.3C6.75 6.22828 6.75002 6.17342 6.75076 6.12635C6.7515 6.07925 6.75285 6.05072 6.75432 6.03267C6.75734 5.99568 6.75835 6.04363 6.72275 6.1135L5.38624 5.43251C5.29614 5.60934 5.26991 5.78077 5.2593 5.91053C5.24942 6.03153 5.25 6.17236 5.25 6.3L6.75 6.3ZM5.93252 4.88624C5.6973 5.00609 5.50608 5.19732 5.38625 5.4325L6.72275 6.1135C6.69879 6.16053 6.66055 6.19878 6.61349 6.22276L5.93252 4.88624ZM17.75 6.3C17.75 6.17236 17.7506 6.03153 17.7407 5.91053C17.7301 5.78077 17.7039 5.60934 17.6138 5.43251L16.2773 6.1135C16.2416 6.04363 16.2427 5.99568 16.2457 6.03267C16.2472 6.05072 16.2485 6.07925 16.2492 6.12635C16.25 6.17342 16.25 6.22828 16.25 6.3L17.75 6.3ZM16.2 6.25C16.2717 6.25 16.3266 6.25002 16.3737 6.25076C16.4208 6.2515 16.4493 6.25285 16.4673 6.25432C16.5043 6.25734 16.4564 6.25835 16.3865 6.22275L17.0675 4.88624C16.8907 4.79614 16.7192 4.76991 16.5895 4.7593C16.4685 4.74942 16.3276 4.75 16.2 4.75L16.2 6.25ZM17.6138 5.43251C17.4939 5.19732 17.3027 5.00608 17.0675 4.88624L16.3865 6.22276C16.3395 6.19878 16.3012 6.16053 16.2773 6.1135L17.6138 5.43251ZM16.25 9.7C16.25 9.77172 16.25 9.82658 16.2492 9.87365C16.2485 9.92075 16.2472 9.94928 16.2457 9.96733C16.2427 10.0043 16.2416 9.95638 16.2772 9.8865L17.6138 10.5675C17.7039 10.3907 17.7301 10.2192 17.7407 10.0895C17.7506 9.96847 17.75 9.82764 17.75 9.7L16.25 9.7ZM16.2 11.25C16.3276 11.25 16.4685 11.2506 16.5895 11.2407C16.7192 11.2301 16.8907 11.2039 17.0675 11.1138L16.3865 9.77725C16.4564 9.74165 16.5043 9.74266 16.4673 9.74568C16.4493 9.74715 16.4208 9.7485 16.3737 9.74924C16.3266 9.74998 16.2717 9.75 16.2 9.75L16.2 11.25ZM16.2773 9.8865C16.3012 9.83946 16.3395 9.80122 16.3865 9.77725L17.0675 11.1138C17.3027 10.9939 17.4939 10.8027 17.6138 10.5675L16.2773 9.8865ZM3.75 22L3.75 2L2.25 2L2.25 22L3.75 22Z" fill="#282930"/>
</svg>
