<svg width="24" height="24" viewBox="0 0 24 24" fill="none" xmlns="http://www.w3.org/2000/svg">
<path d="M13.5 12V18.7C13.5 18.98 13.5 19.12 13.5545 19.227C13.6024 19.3211 13.6789 19.3976 13.773 19.4455C13.88 19.5 14.02 19.5 14.3 19.5H17.7C17.98 19.5 18.12 19.5 18.227 19.4455C18.3211 19.3976 18.3976 19.3211 18.4455 19.227C18.5 19.12 18.5 18.98 18.5 18.7V12M13.5 12V5.3C13.5 5.01997 13.5 4.87996 13.5545 4.773C13.6024 4.67892 13.6789 4.60243 13.773 4.5545C13.88 4.5 14.02 4.5 14.3 4.5L17.7 4.5C17.98 4.5 18.12 4.5 18.227 4.5545C18.3211 4.60243 18.3976 4.67892 18.4455 4.773C18.5 4.87996 18.5 5.01997 18.5 5.3V12M13.5 12L10.5 12M18.5 12H22M10.5 12V7.8C10.5 7.51997 10.5 7.37996 10.4455 7.273C10.3976 7.17892 10.3211 7.10243 10.227 7.0545C10.12 7 9.98003 7 9.7 7L6.3 7C6.01997 7 5.87996 7 5.773 7.0545C5.67892 7.10243 5.60243 7.17892 5.5545 7.27301C5.5 7.37996 5.5 7.51997 5.5 7.8L5.5 12M10.5 12V16.2C10.5 16.48 10.5 16.62 10.4455 16.727C10.3976 16.8211 10.3211 16.8976 10.227 16.9455C10.12 17 9.98003 17 9.7 17H6.3C6.01998 17 5.87996 17 5.773 16.9455C5.67892 16.8976 5.60243 16.8211 5.5545 16.727C5.5 16.62 5.5 16.48 5.5 16.2L5.5 12M5.5 12H2" stroke="#282930" stroke-width="1.5" stroke-linecap="round"/>
</svg>
