<svg width="24" height="24" viewBox="0 0 24 24" fill="none" xmlns="http://www.w3.org/2000/svg">
<path fill-rule="evenodd" clip-rule="evenodd" d="M8.78858 3.5C7.78373 3.5 6.96914 4.31459 6.96914 5.31944V8.96606C6.96914 10.2951 6.17991 11.4753 4.99711 12C6.17991 12.5247 6.96914 13.7049 6.96914 15.0339V18.6806C6.96914 19.6854 7.78373 20.5 8.78858 20.5H9.30247C9.71669 20.5 10.0525 20.8358 10.0525 21.25C10.0525 21.6642 9.71669 22 9.30247 22H8.78858C6.9553 22 5.46914 20.5138 5.46914 18.6806V15.0339C5.46914 14.1991 4.90093 13.4713 4.09098 13.2688L2.7238 12.927C1.75873 12.6858 1.75873 11.3142 2.7238 11.073L4.09098 10.7312C4.90093 10.5287 5.46914 9.80095 5.46914 8.96606V5.31944C5.46914 3.48617 6.9553 2 8.78858 2H9.30247C9.71669 2 10.0525 2.33579 10.0525 2.75C10.0525 3.16421 9.71669 3.5 9.30247 3.5H8.78858Z" fill="#282930"/>
<path opacity="0.4" d="M13.9475 2.75C13.9475 2.33579 14.2833 2 14.6975 2H15.2114C17.0447 2 18.5308 3.48617 18.5308 5.31944V8.96606C18.5308 9.80095 19.0991 10.5287 19.909 10.7312L21.2762 11.073C22.2413 11.3142 22.2413 12.6858 21.2762 12.927L19.909 13.2688C19.0991 13.4713 18.5308 14.1991 18.5308 15.0339V18.6806C18.5308 20.5138 17.0447 22 15.2114 22H14.6975C14.2833 22 13.9475 21.6642 13.9475 21.25C13.9475 20.8358 14.2833 20.5 14.6975 20.5H15.2114C16.2163 20.5 17.0308 19.6854 17.0308 18.6806V15.0339C17.0308 13.7049 17.8201 12.5247 19.0029 12C17.8201 11.4753 17.0308 10.2951 17.0308 8.96606V5.31944C17.0308 4.31459 16.2163 3.5 15.2114 3.5H14.6975C14.2833 3.5 13.9475 3.16421 13.9475 2.75Z" fill="#282930"/>
</svg>
