<svg width="24" height="24" viewBox="0 0 24 24" fill="none" xmlns="http://www.w3.org/2000/svg">
<path d="M12 2.5C8.93176 2.5 6.44446 5.00194 6.44446 8.08824C6.44446 8.89691 6.61523 9.66547 6.92247 10.3594C7.7878 12.3139 9.73571 13.6765 12 13.6765C12.2141 13.6765 12.4253 13.6643 12.6331 13.6406C14.623 13.4135 16.294 12.1291 17.0776 10.3594C17.3848 9.66547 17.5556 8.89691 17.5556 8.08824C17.5556 5.00194 15.0683 2.5 12 2.5Z" stroke="#282930" stroke-width="1.5"/>
<path opacity="0.4" d="M6.92245 10.3594C4.15233 10.6755 2 13.0408 2 15.9117C2 18.998 4.48731 21.5 7.55556 21.5C9.37289 21.5 10.9864 20.6222 12 19.2652M12.6331 13.6405C12.9403 14.3345 13.1111 15.103 13.1111 15.9117C13.1111 17.17 12.6977 18.3311 12 19.2652M17.0775 10.3594C19.8477 10.6755 22 13.0408 22 15.9117C22 18.998 19.5127 21.5 16.4444 21.5C14.6271 21.5 13.0136 20.6222 12 19.2652" stroke="#282930" stroke-width="1.5"/>
</svg>
