<svg width="24" height="24" viewBox="0 0 24 24" fill="none" xmlns="http://www.w3.org/2000/svg">
<path d="M5.8125 15.8888H9.08059C9.74212 15.8888 10.2609 16.4498 10.201 17.1005L9.95371 19.7868C9.84432 20.9752 10.7918 21.9999 12 21.9999C13.2082 21.9999 14.1557 20.9752 14.0463 19.7868L13.799 17.1005C13.7391 16.4498 14.2579 15.8888 14.9194 15.8888H18.1875C19.7408 15.8888 21 14.6451 21 13.111V11.4443H3V13.111C3 14.6451 4.2592 15.8888 5.8125 15.8888Z" stroke="#282930" stroke-width="1.5" stroke-linecap="round"/>
<path opacity="0.4" d="M3 11.4444V3.11111C3 2.49746 3.50368 2 4.125 2H7.04878C7.31242 2 7.54069 2.18085 7.59788 2.43504L8.51518 6.51191C8.54128 6.62792 8.70872 6.62792 8.73482 6.51191L9.65212 2.43504C9.70931 2.18085 9.93758 2 10.2012 2H18.1875C19.7408 2 21 3.24365 21 4.77778V11.4444" stroke="#282930" stroke-width="1.5" stroke-linecap="round"/>
</svg>
