<svg width="24" height="24" viewBox="0 0 24 24" fill="none" xmlns="http://www.w3.org/2000/svg">
<path fill-rule="evenodd" clip-rule="evenodd" d="M2 5.53003C2 5.11582 2.33579 4.78003 2.75 4.78003H21.25C21.6642 4.78003 22 5.11582 22 5.53003C22 5.94424 21.6642 6.28003 21.25 6.28003H2.75C2.33579 6.28003 2 5.94424 2 5.53003ZM8.16667 9.84336C8.16667 9.42915 8.50245 9.09336 8.91667 9.09336H21.25C21.6642 9.09336 22 9.42915 22 9.84336C22 10.2576 21.6642 10.5934 21.25 10.5934H8.91667C8.50245 10.5934 8.16667 10.2576 8.16667 9.84336ZM2 14.1567C2 13.7425 2.33579 13.4067 2.75 13.4067H21.25C21.6642 13.4067 22 13.7425 22 14.1567C22 14.5709 21.6642 14.9067 21.25 14.9067H2.75C2.33579 14.9067 2 14.5709 2 14.1567ZM8.16667 18.47C8.16667 18.0558 8.50245 17.72 8.91667 17.72H21.25C21.6642 17.72 22 18.0558 22 18.47C22 18.8842 21.6642 19.22 21.25 19.22H8.91667C8.50245 19.22 8.16667 18.8842 8.16667 18.47Z" fill="#282930"/>
</svg>
