<svg width="24" height="24" viewBox="0 0 24 24" fill="none" xmlns="http://www.w3.org/2000/svg">
<path opacity="0.4" fill-rule="evenodd" clip-rule="evenodd" d="M13.3057 10.9722C13.3057 10.558 13.6415 10.2222 14.0557 10.2222H19.323C20.8015 10.2222 22.0001 11.4207 22.0001 12.8993V12.9706C22.0001 13.3848 21.6643 13.7206 21.2501 13.7206C20.8359 13.7206 20.5001 13.3848 20.5001 12.9706V12.8993C20.5001 12.2492 19.9731 11.7222 19.323 11.7222H16.8612V20.4999H17.8242C18.2384 20.4999 18.5742 20.8357 18.5742 21.2499C18.5742 21.6642 18.2384 21.9999 17.8242 21.9999H14.3983C13.984 21.9999 13.6483 21.6642 13.6483 21.2499C13.6483 20.8357 13.984 20.4999 14.3983 20.4999H15.3612V11.7222H14.0557C13.6415 11.7222 13.3057 11.3864 13.3057 10.9722Z" fill="#282930"/>
<path fill-rule="evenodd" clip-rule="evenodd" d="M5.83333 3.5C4.54467 3.5 3.5 4.54467 3.5 5.83333V5.94753C3.5 6.36174 3.16421 6.69753 2.75 6.69753C2.33579 6.69753 2 6.36174 2 5.94753V5.83333C2 3.71624 3.71624 2 5.83333 2H16.1111C18.2282 2 19.9444 3.71624 19.9444 5.83333V5.94753C19.9444 6.36174 19.6087 6.69753 19.1944 6.69753C18.7802 6.69753 18.4444 6.36174 18.4444 5.94753V5.83333C18.4444 4.54467 17.3998 3.5 16.1111 3.5H11.7222V18.4444H12.5139C12.9281 18.4444 13.2639 18.7802 13.2639 19.1944C13.2639 19.6087 12.9281 19.9444 12.5139 19.9444H8.23148C7.81727 19.9444 7.48148 19.6087 7.48148 19.1944C7.48148 18.7802 7.81727 18.4444 8.23148 18.4444H10.2222V3.5H5.83333Z" fill="#282930"/>
</svg>
