<svg width="24" height="24" viewBox="0 0 24 24" fill="none" xmlns="http://www.w3.org/2000/svg">
<path fill-rule="evenodd" clip-rule="evenodd" d="M2 5.98999C2 5.57578 2.33579 5.23999 2.75 5.23999H21.25C21.6642 5.23999 22 5.57578 22 5.98999C22 6.4042 21.6642 6.73999 21.25 6.73999H2.75C2.33579 6.73999 2 6.4042 2 5.98999ZM2 9.99832C2 9.58411 2.33579 9.24832 2.75 9.24832H21.25C21.6642 9.24832 22 9.58411 22 9.99832C22 10.4125 21.6642 10.7483 21.25 10.7483H2.75C2.33579 10.7483 2 10.4125 2 9.99832ZM2 14.0067C2 13.5924 2.33579 13.2567 2.75 13.2567H21.25C21.6642 13.2567 22 13.5924 22 14.0067C22 14.4209 21.6642 14.7567 21.25 14.7567H2.75C2.33579 14.7567 2 14.4209 2 14.0067ZM2 18.015C2 17.6008 2.33579 17.265 2.75 17.265H21.25C21.6642 17.265 22 17.6008 22 18.015C22 18.4292 21.6642 18.765 21.25 18.765H2.75C2.33579 18.765 2 18.4292 2 18.015Z" fill="#282930"/>
</svg>
