<svg width="24" height="24" viewBox="0 0 24 24" fill="none" xmlns="http://www.w3.org/2000/svg">
<path fill-rule="evenodd" clip-rule="evenodd" d="M2 5.98999C2 5.57578 2.33579 5.23999 2.75 5.23999H21.25C21.6642 5.23999 22 5.57578 22 5.98999C22 6.4042 21.6642 6.73999 21.25 6.73999H2.75C2.33579 6.73999 2 6.4042 2 5.98999ZM5.08333 9.99832C5.08333 9.58411 5.41912 9.24832 5.83333 9.24832H18.1667C18.5809 9.24832 18.9167 9.58411 18.9167 9.99832C18.9167 10.4125 18.5809 10.7483 18.1667 10.7483H5.83333C5.41912 10.7483 5.08333 10.4125 5.08333 9.99832ZM2 14.0067C2 13.5924 2.33579 13.2567 2.75 13.2567H21.25C21.6642 13.2567 22 13.5924 22 14.0067C22 14.4209 21.6642 14.7567 21.25 14.7567H2.75C2.33579 14.7567 2 14.4209 2 14.0067ZM5.08333 18.015C5.08333 17.6008 5.41912 17.265 5.83333 17.265H18.1667C18.5809 17.265 18.9167 17.6008 18.9167 18.015C18.9167 18.4292 18.5809 18.765 18.1667 18.765H5.83333C5.41912 18.765 5.08333 18.4292 5.08333 18.015Z" fill="#282930"/>
</svg>
