<svg xmlns="http://www.w3.org/2000/svg" viewBox="0 0 16 20"><defs><style>.cls-1,.cls-2{fill-rule:evenodd;}.cls-2{isolation:isolate;}</style></defs><g id="Layer_2" data-name="Layer 2"><g id="Layer_1-2" data-name="Layer 1"><path class="cls-1" d="M8.75,12.06l1.71,1.77a.75.75,0,1,0,1.08-1l-2.92-3a.87.87,0,0,0-1.24,0l-2.92,3a.75.75,0,0,0,1.08,1l1.71-1.77v7.19a.75.75,0,0,0,1.5,0Z"/><path class="cls-2" d="M6.2,20H4.8a7.37,7.37,0,0,1-3.16-.33A2.87,2.87,0,0,1,.33,18.36,7.37,7.37,0,0,1,0,15.2V4.8A7.37,7.37,0,0,1,.33,1.64,2.87,2.87,0,0,1,1.64.33,7.37,7.37,0,0,1,4.8,0H8.26A3,3,0,0,1,9.5.27a3.09,3.09,0,0,1,.88.61l4.74,4.74a3.09,3.09,0,0,1,.61.88A3,3,0,0,1,16,7.74V15.2a7.37,7.37,0,0,1-.33,3.16,2.87,2.87,0,0,1-1.31,1.31A7.37,7.37,0,0,1,11.2,20H9.8a1.86,1.86,0,0,0,.15-.75V15a2,2,0,0,0,2.45-3l-2.92-3a2.05,2.05,0,0,0-3,0L3.6,12a2,2,0,0,0,2.45,3v4.29A1.86,1.86,0,0,0,6.2,20ZM10.46,2.24,14.26,6a2.44,2.44,0,0,1,.49.71H12.16A2.41,2.41,0,0,1,9.75,4.34V1.75A2.44,2.44,0,0,1,10.46,2.24Z"/></g></g></svg>