<svg width="24" height="24" viewBox="0 0 24 24" fill="none" xmlns="http://www.w3.org/2000/svg">
<g clip-path="url(#clip0_7_6648)">
<path d="M6.14999 3H17.85C18.23 3 18.61 3.10003 18.94 3.28003C19.26 3.47003 19.54 3.72999 19.73 4.04999C19.91 4.36999 20.01 4.72998 20 5.09998C19.99 5.46998 19.89 5.83001 19.69 6.14001L16 11.97C15.49 12.78 15.21 13.71 15.21 14.66V18.78C15.21 20.72 13.79 21.51 12.04 20.6L9.91 19.48C9.59 19.29 9.31 19.02 9.11 18.7C8.92 18.38 8.80999 18.03 8.78999 17.66V14.66C8.78999 13.71 8.52 12.78 8 11.97L4.32001 6.14001C4.12001 5.83001 4.01999 5.46998 4.00999 5.09998C3.99999 4.72998 4.1 4.36999 4.28 4.04999C4.47 3.72999 4.74001 3.46003 5.07001 3.28003C5.40001 3.09003 5.78 3 6.16 3H6.14999Z" stroke="black" stroke-width="1.5" stroke-linecap="round" stroke-linejoin="round"/>
<path d="M9.85001 3.01001L15.71 12.46" stroke="black" stroke-width="1.5" stroke-linecap="round" stroke-linejoin="round"/>
</g>
<defs>
<clipPath id="clip0_7_6648">
<rect width="24" height="24" fill="white"/>
</clipPath>
</defs>
</svg>
