<svg xmlns="http://www.w3.org/2000/svg" viewBox="0 0 19.5 19.5"><defs><style>.cls-1,.cls-2{fill:none;stroke:#363853;stroke-linecap:round;stroke-width:1.5px;}.cls-2{stroke-linejoin:round;}</style></defs><g id="Layer_2" data-name="Layer 2"><g id="Layer_1-2" data-name="Layer 1"><path class="cls-1" d="M9.75.75a13.66,13.66,0,0,0-3,.35A7.51,7.51,0,0,0,1.1,6.7a13.37,13.37,0,0,0,0,6.1,7.51,7.51,0,0,0,5.6,5.6,13.37,13.37,0,0,0,6.1,0,7.51,7.51,0,0,0,5.6-5.6,13.66,13.66,0,0,0,.35-3.05"/><path class="cls-2" d="M14.75,8.92h-4m0,0V4.25m0,4.67,6-7"/></g></g></svg>