<svg width="24" height="24" viewBox="0 0 24 24" fill="none" xmlns="http://www.w3.org/2000/svg">
<g clip-path="url(#clip0_7_6616)">
<path d="M11.45 13.77L3.7 9.42999C2.76 8.88999 2.76 8.00002 3.7 7.46002L11.45 3.12C11.62 3.04 11.81 3 12 3C12.19 3 12.38 3.04 12.55 3.12L20.3 7.46002C21.24 8.00002 21.24 8.88999 20.3 9.42999L12.55 13.77C12.38 13.85 12.19 13.89 12 13.89C11.81 13.89 11.62 13.85 11.45 13.77Z" stroke="black" stroke-width="1.5" stroke-miterlimit="10" stroke-linecap="round"/>
<path d="M18.7 13.68L20.3 14.57C21.24 15.11 21.24 16 20.3 16.54L12.55 20.88C12.38 20.96 12.19 21 12 21C11.81 21 11.62 20.96 11.45 20.88L3.7 16.54C2.76 16 2.76 15.11 3.7 14.57L5.28996 13.68" stroke="black" stroke-width="1.5" stroke-miterlimit="10" stroke-linecap="round"/>
</g>
<defs>
<clipPath id="clip0_7_6616">
<rect width="24" height="24" fill="white"/>
</clipPath>
</defs>
</svg>
