<svg xmlns="http://www.w3.org/2000/svg" viewBox="0 0 319.15 387"><g id="Layer_2" data-name="Layer 2"><g id="Layer_1-2" data-name="Layer 1"><path d="M68.38,386.86A89.13,89.13,0,0,1,50.32,384C23.69,376.9,4.64,355.89,1,328.49-2.44,302,3.19,276.94,12.67,252.56c16.57-42.62,43.34-77.89,78.39-107,7.79-6.48,15.68-12.84,23.85-19.51a13.44,13.44,0,0,0-2.78-1.66c-15.34-4.47-30.95-7-47-6.23a23.76,23.76,0,0,0-18.57,9.59c-1.19,1.56-2.56,3-3.85,4.45l-1.07-.71A16.48,16.48,0,0,1,43,127.63c3.74-5.83,7.26-11.85,11.52-17.29C60.88,102.16,70,98.69,80,98a138.35,138.35,0,0,1,38.85,2.34c5.75,1.23,32,6.38,23.19,16.34-5.43,6.13-10.92,12.78-17.74,17-38.4,23.75-69.38,54-87.56,96.09-6.52,15.08-10.64,30.72-10.37,47.32.45,28.16,15.63,48,43.08,54.75,25.7,6.32,51.18,3.53,76.16-4.34a151.85,151.85,0,0,0,64.74-40.61c5.27-5.49,10.29-11.21,15.54-16.72,1.84-1.93,4-3.54,6-5.3l1.21.9c-.38,1.27-.48,2.72-1.18,3.77-21.81,33.1-44.74,65.25-77.56,88.72C130.18,375.54,98.87,388.55,68.38,386.86Z"/><path d="M232.55,115.69c5.56-3.62,9.66-8.92,12.94-15,3.44-6.33,6.43-13,10.47-18.89,5.91-8.66,11.93-17.43,19.1-25a155,155,0,0,0,17.52-21.71c5-7.61,6.37-7.77,12.24-.84a95.76,95.76,0,0,1,8.82,12.34c12.19,20.28,1.93,40.23-9.32,49.81-5.06,4.31-10.78,6.45-17.42,4.77-15.63-4-26.82,2.16-34.71,15.37-4.72,7.89-8.94,16.07-13.54,24-3.51,6.09-8.41,11.94-10.67,18.65A238.78,238.78,0,0,1,207.09,205c-6.38,10.77-15.31,18-27.41,21.18-8.5,2.25-17,4.56-25.52,6.62-2.5.61-5.18.47-7.78.67l-.54-1a48.68,48.68,0,0,1,4.54-4c9.46-6.49,19.08-12.75,28.46-19.34a111.53,111.53,0,0,0,25.78-24.41,59.39,59.39,0,0,0,4.2-6.45,39.1,39.1,0,0,0,2.83-5.1,7.06,7.06,0,0,0,.41-1.17.78.78,0,0,0-.08-.58,1.1,1.1,0,0,0-.61-.24,10.26,10.26,0,0,1-2.52-1.1,3.94,3.94,0,0,0-2.49-.66c-1.71.24-3.3,1-5,1.16-8.21.53-16-.2-22.71-5.62-5.93-4.82-8.41-11.09-6.42-18.53,4.36-16.26,11.29-31.38,21.9-44.54,9.73-12.06,22.53-11.58,31.51,1.11C228.35,106.85,230.21,111.34,232.55,115.69Z"/><path d="M116.06,205.81c9.27,6.35,18.38,12.16,25.16,20.78a19.13,19.13,0,0,1,2.94,20,67,67,0,0,1-21.46,28.36c-2.11,1.64-4,1.51-6-.29-7.9-6.95-15.77-13.94-23.86-20.65-2.75-2.28-3.48-4.1-1.52-7.33,7.55-12.4,14.88-24.94,22.31-37.42C114.18,208.23,115,207.32,116.06,205.81Z"/><path d="M210,12.32a24.52,24.52,0,0,1-.45,2.7,41.34,41.34,0,0,1-3.5,9.41,65.22,65.22,0,0,1-34.21,31.26,13.69,13.69,0,0,1-4.46,1.13c-3.86.15-6.21-3-3.52-6.26a10.4,10.4,0,0,1,2.31-1.92l10.75-7.27c4.63-3.13,9.42-6.42,12.3-11.22.76-1.27,1.38-2.85.76-4.2s-2.36-1.94-3.9-2.09c-6.33-.63-12.4,2.56-17.64,6.17-2.08,1.44-4.22,3-6.73,3.39-1.59-3.32-.25-7.28,1.52-10.5A46.87,46.87,0,0,1,184.41,3.54C189.29,1.24,194.64-.31,200,.05a11.74,11.74,0,0,1,6.57,2.18,9.68,9.68,0,0,1,3.31,5.91A15,15,0,0,1,210,12.32Z"/></g></g></svg>